# xmcd
#
# Track frame offsets: 
#        183
#        16040
#        31090
#        49133
#        66110
#        84650
#        100270
#        117373
#        135743
#        152313
#        170963
#        188653
#
# Disc length: 2752 seconds
#
# Revision: 2
# Processed by: cddbd v1.5.2PL0 Copyright (c) Steve Scherf et al.
# Submitted via: ExactAudioCopy v0.95b2
#
DISCID=930abe0c
DTITLE=Wendi Slaton - Back Here Again
DYEAR=1992
DGENRE=Blues
TTITLE0=Back Here Again
TTITLE1=Don't Know Who To Believe
TTITLE2=(Its's Been) So Long
TTITLE3=The Jealous Kind
TTITLE4=Take Care Of You
TTITLE5=My Finger Is A Gun
TTITLE6=I Do
TTITLE7=Life Is What You Make It
TTITLE8=How I Wish She Would
TTITLE9=You Can Have Me Forever
TTITLE10=0602
TTITLE11=I Can't Stand The Rain
EXTD=
EXTT0=
EXTT1=
EXTT2=
EXTT3=
EXTT4=
EXTT5=
EXTT6=
EXTT7=
EXTT8=
EXTT9=
EXTT10=
EXTT11=
PLAYORDER=
